<svg version="1.2" xmlns="http://www.w3.org/2000/svg" viewBox="0 0 250 250" width="250" height="250">
	<title>calvadoz-unity-ai</title>
	<style>
		.s0 { fill: #db7266 } 
		.s1 { display: none;fill: #db7266 } 
	</style>
	<g id="Layer 1">
		<g id="&lt;Group&gt;">
			<g id="&lt;Group&gt;">
				<path id="&lt;Path&gt;" class="s0" d="m155.3 231.6c-13.2 0-26.4-0.1-39.6 0.1-2.5 0-4.3-0.7-6-2.4-27.7-27.8-55.3-55.4-83-83.1-1.2-1.1-1.5-1.6-0.1-3q43.8-43.6 87.4-87.4c1.6-1.6 3.2-2.2 5.4-2.2 25.5 0 50.9 0 76.4 0 0.5 0 1-0.1 1.4 0 0.6 0.2 1.5 0.4 1.7 0.8 0.2 0.4-0.1 1.3-0.5 1.8-1.2 1.4-2.6 2.6-3.9 3.9-27.5 27.6-55 55.1-82.5 82.5-1.6 1.6-2.1 2.2-0.2 4.1 14.1 13.8 27.9 27.7 41.8 41.7 1.1 1.1 1.6 1.5 3.1 0.1 13.5-13.7 27.1-27.2 40.7-40.8 1.7-1.7 2.9-4.2 6.1-3.8 2.1 0.3 3.9-1.4 6.6-0.2 2.4 0.9 6.2 1.6 9.1-1 0.6-0.6 2.2-0.1 3.4-0.1q29.2 0 58.4 0c1.1 0 2.3-0.2 3.4 0.1 0.8 0.2 1.4 1.1 1.9 1.9 0.1 0.1-0.6 1.1-1.1 1.4-4.4 2.4-7.9 5.7-10.2 10.2-0.4 0.7-1.4 1.1-2.1 1.7-2.7 2.4-5.8 4.5-8 7.3-1.3 1.7-2.5 3.1-4.3 4.4-2.9 2-5 5.2-7.4 7.9-0.9 0.9-1.8 1.8-2.8 2.6-2.8 2.7-5.9 5.1-8.2 8.1-1.1 1.5-1.8 2.6-3.6 3.3-1.4 0.5-2.5 2-3.5 3.3-4.1 5.3-9.5 9.4-14.2 14.1-6.7 6.8-13.5 13.4-20.1 20.2-1.7 1.8-3.4 2.6-5.9 2.5-13.2-0.1-26.4 0-39.6 0z"/>
			</g>
			<g id="&lt;Group&gt;" style="display: none">
				<g id="&lt;Group&gt;" style="display: none">
					<path id="&lt;Compound Path&gt;" class="s0" d="m-67.9 365.4q-7 0-11.9-2.4-5-2.4-7.7-6.9-2.7-4.5-3-11.1 0-3 0-6.6 0-3.5 0-6.7 0.3-6.5 3.1-11 2.7-4.5 7.7-6.9 4.9-2.4 11.8-2.4 5 0 9.2 1.2 4.1 1.3 7.1 3.7 3 2.4 4.6 5.6 1.7 3.3 1.8 7.2 0 0.7-0.4 1.2-0.5 0.4-1.2 0.4h-8.6q-0.9 0-1.4-0.4-0.5-0.5-0.8-1.5-1.1-4.5-3.8-6.1-2.6-1.7-6.5-1.7-4.6 0-7.3 2.6-2.7 2.5-3 8.5-0.2 6.1 0 12.6 0.3 5.9 3 8.4 2.7 2.6 7.3 2.6 3.9 0 6.6-1.7 2.6-1.7 3.7-6 0.3-1.2 0.8-1.6 0.5-0.4 1.4-0.4h8.6q0.7 0 1.2 0.5 0.4 0.4 0.4 1.1-0.1 4-1.8 7.2-1.6 3.2-4.6 5.6-3 2.4-7.1 3.7-4.2 1.3-9.2 1.3z"/>
					<path id="&lt;Compound Path&gt;" fill-rule="evenodd" class="s0" d="m-25.5 364.6q-0.7 0-1.1-0.5-0.5-0.5-0.5-1.1 0-0.3 0.1-0.6l17.8-48.3q0.3-0.8 0.9-1.4 0.7-0.6 1.9-0.6h9.6q1.2 0 1.9 0.6 0.7 0.6 0.9 1.4l17.8 48.3q0.1 0.3 0.1 0.6 0 0.6-0.4 1.1-0.5 0.5-1.2 0.5h-7.8q-1.1 0-1.6-0.5-0.5-0.5-0.7-1l-3.2-8.4h-21.2l-3.2 8.4q-0.1 0.5-0.7 1-0.5 0.5-1.6 0.5zm16.1-19.6h15.5l-7.7-21.6z"/>
					<path id="&lt;Compound Path&gt;" class="s0" d="m47.2 364.6q-0.8 0-1.3-0.5-0.5-0.5-0.5-1.4v-48.7q0-0.8 0.5-1.4 0.5-0.5 1.3-0.5h8.4q0.8 0 1.3 0.5 0.5 0.6 0.5 1.4v40.6h23.3q0.8 0 1.3 0.5 0.6 0.5 0.6 1.3v6.3q0 0.9-0.6 1.4-0.5 0.5-1.3 0.5z"/>
					<path id="&lt;Compound Path&gt;" class="s0" d="m112.8 364.6q-1.2 0-1.9-0.6-0.7-0.7-1-1.6l-15.8-48q0-0.4 0-0.7 0-0.6 0.4-1.1 0.5-0.5 1.1-0.5h7.9q1.1 0 1.8 0.6 0.6 0.7 0.8 1.2l11.7 36.7 11.6-36.7q0.2-0.5 0.8-1.2 0.6-0.6 1.7-0.6h7.9q0.7 0 1.1 0.5 0.5 0.5 0.5 1.1 0 0.3-0.1 0.7l-15.7 48q-0.3 0.9-1 1.6-0.7 0.6-2 0.6z"/>
					<path id="&lt;Compound Path&gt;" fill-rule="evenodd" class="s0" d="m156.8 364.6q-0.7 0-1.2-0.5-0.4-0.5-0.4-1.1 0-0.3 0.1-0.6l17.8-48.3q0.2-0.8 0.9-1.4 0.7-0.6 1.9-0.6h9.6q1.2 0 1.9 0.6 0.6 0.6 0.9 1.4l17.8 48.3q0.1 0.3 0.1 0.6 0 0.6-0.5 1.1-0.4 0.5-1.1 0.5h-7.8q-1.1 0-1.6-0.5-0.6-0.5-0.7-1l-3.2-8.4h-21.2l-3.2 8.4q-0.2 0.5-0.7 1-0.5 0.5-1.6 0.5zm16.1-19.6h15.5l-7.7-21.6z"/>
					<path id="&lt;Compound Path&gt;" fill-rule="evenodd" class="s0" d="m229.5 364.6q-0.8 0-1.3-0.5-0.6-0.5-0.6-1.4v-48.7q0-0.8 0.6-1.4 0.5-0.5 1.3-0.5h18.8q7.5 0 12.6 2.4 5 2.3 7.6 6.9 2.7 4.5 2.9 11.2 0 3.3 0 5.8 0 2.4 0 5.7-0.3 6.9-2.8 11.5-2.6 4.6-7.5 6.8-5 2.2-12.4 2.2zm10.1-9.7h8.7q3.8 0 6.2-1.1 2.4-1.1 3.5-3.6 1.2-2.4 1.3-6.3 0.1-2.2 0.1-3.9 0-1.7 0-3.4 0-1.8-0.1-3.9-0.2-5.6-2.9-8.3-2.7-2.6-8.4-2.6h-8.4z"/>
					<path id="&lt;Compound Path&gt;" fill-rule="evenodd" class="s0" d="m316.7 365.4q-6.9 0-11.8-2.3-5-2.2-7.7-6.8-2.8-4.5-3-11.4-0.1-3.2-0.1-6.4 0-3.2 0.1-6.5 0.2-6.8 3-11.4 2.8-4.6 7.8-6.9 5-2.3 11.7-2.3 6.5 0 11.5 2.3 5 2.3 7.9 6.9 2.8 4.6 3 11.4 0.1 3.3 0.1 6.5 0 3.2-0.1 6.4-0.3 6.9-3 11.4-2.8 4.6-7.7 6.8-5 2.3-11.7 2.3zm0-9.7q4.3 0 7.1-2.7 2.8-2.6 3-8.5 0.1-3.3 0.1-6.2 0-2.9-0.1-6.1-0.1-3.9-1.4-6.4-1.4-2.4-3.6-3.6-2.2-1.2-5.1-1.2-3 0-5.2 1.2-2.3 1.2-3.6 3.6-1.3 2.5-1.4 6.4-0.1 3.2-0.1 6.1 0 2.9 0.1 6.2 0.2 5.9 3 8.5 2.7 2.7 7.2 2.7z"/>
					<path id="&lt;Compound Path&gt;" class="s0" d="m362.3 364.6q-0.9 0-1.4-0.6-0.5-0.5-0.5-1.3v-6.3q0-1 0.4-1.7 0.5-0.7 0.7-1l25.2-31.6h-23.8q-0.7 0-1.2-0.5-0.6-0.6-0.6-1.3v-6.3q0-0.8 0.6-1.4 0.5-0.5 1.2-0.5h36.8q0.9 0 1.4 0.5 0.6 0.6 0.6 1.4v6.2q0 0.8-0.3 1.5-0.3 0.6-0.7 1.1l-24.5 31.8h24.5q0.8 0 1.3 0.5 0.5 0.5 0.5 1.3v6.3q0 0.9-0.5 1.4-0.5 0.5-1.3 0.5z"/>
				</g>
			</g>
			<g id="&lt;Group&gt;" style="display: none">
				<g id="&lt;Group&gt;" style="display: none">
					<path id="&lt;Compound Path&gt;" class="s0" d="m-53.4 408.1q-0.3 0-0.5-0.2-0.2-0.2-0.2-0.5v-21q0-0.3 0.2-0.5 0.2-0.2 0.5-0.2h12.4q0.3 0 0.5 0.2 0.2 0.2 0.2 0.5v0.5q0 0.3-0.2 0.5-0.2 0.2-0.5 0.2h-11v8.6h10.4q0.3 0 0.5 0.2 0.2 0.2 0.2 0.6v0.5q0 0.3-0.2 0.5-0.2 0.2-0.5 0.2h-10.4v9.2q0 0.3-0.2 0.5-0.2 0.2-0.6 0.2z"/>
					<path id="&lt;Compound Path&gt;" class="s0" d="m-28.7 408.1q-0.3 0-0.5-0.2-0.2-0.2-0.2-0.5v-21q0-0.3 0.2-0.5 0.2-0.2 0.5-0.2h12.5q0.3 0 0.5 0.2 0.2 0.2 0.2 0.5v0.5q0 0.3-0.2 0.5-0.2 0.2-0.5 0.2h-11.2v8.2h10.5q0.3 0 0.5 0.2 0.2 0.2 0.2 0.5v0.5q0 0.3-0.2 0.5-0.2 0.2-0.5 0.2h-10.5v8.5h11.4q0.4 0 0.6 0.2 0.2 0.2 0.2 0.5v0.5q0 0.3-0.2 0.5-0.2 0.2-0.6 0.2z"/>
					<path id="&lt;Compound Path&gt;" class="s0" d="m-3.4 408.1q-0.3 0-0.5-0.2-0.2-0.2-0.2-0.5v-21q0-0.3 0.2-0.5 0.2-0.2 0.5-0.2h12.5q0.4 0 0.5 0.2 0.2 0.2 0.2 0.5v0.5q0 0.3-0.2 0.5-0.1 0.2-0.5 0.2h-11.2v8.2h10.5q0.4 0 0.5 0.2 0.2 0.2 0.2 0.5v0.5q0 0.3-0.2 0.5-0.1 0.2-0.5 0.2h-10.5v8.5h11.5q0.3 0 0.5 0.2 0.2 0.2 0.2 0.5v0.5q0 0.3-0.2 0.5-0.2 0.2-0.5 0.2z"/>
					<path id="&lt;Compound Path&gt;" class="s0" d="m22 408.1q-0.4 0-0.5-0.2-0.2-0.2-0.2-0.5v-21q0-0.3 0.2-0.5 0.1-0.2 0.5-0.2h0.6q0.3 0 0.5 0.2 0.2 0.2 0.2 0.5v19.8h11q0.4 0 0.6 0.2 0.2 0.2 0.2 0.5v0.5q0 0.3-0.2 0.5-0.2 0.2-0.6 0.2z"/>
					<path id="&lt;Compound Path&gt;" class="s0" d="m63.8 408.1q-0.4 0-0.6-0.2-0.1-0.2-0.1-0.5v-19.8h-6.4q-0.3 0-0.5-0.2-0.2-0.2-0.2-0.5v-0.5q0-0.3 0.2-0.5 0.2-0.2 0.5-0.2h14.7q0.3 0 0.5 0.2 0.2 0.2 0.2 0.5v0.5q0 0.3-0.2 0.5-0.2 0.2-0.5 0.2h-6.3v19.8q0 0.3-0.2 0.5-0.2 0.2-0.6 0.2z"/>
					<path id="&lt;Compound Path&gt;" class="s0" d="m83.1 408.1q-0.3 0-0.5-0.2-0.2-0.2-0.2-0.5v-21q0-0.3 0.2-0.5 0.2-0.2 0.5-0.2h0.6q0.3 0 0.5 0.2 0.2 0.2 0.2 0.5v9.4h12.4v-9.4q0-0.3 0.1-0.5 0.2-0.2 0.6-0.2h0.5q0.4 0 0.6 0.2 0.2 0.2 0.2 0.5v21q0 0.3-0.2 0.5-0.2 0.2-0.6 0.2h-0.5q-0.4 0-0.6-0.2-0.1-0.2-0.1-0.5v-9.7h-12.4v9.7q0 0.3-0.2 0.5-0.2 0.2-0.5 0.2z"/>
					<path id="&lt;Compound Path&gt;" class="s0" d="m111.9 408.1q-0.3 0-0.5-0.2-0.2-0.2-0.2-0.5v-21q0-0.3 0.2-0.5 0.2-0.2 0.5-0.2h12.5q0.3 0 0.5 0.2 0.2 0.2 0.2 0.5v0.5q0 0.3-0.2 0.5-0.2 0.2-0.5 0.2h-11.2v8.2h10.5q0.3 0 0.5 0.2 0.2 0.2 0.2 0.5v0.5q0 0.3-0.2 0.5-0.2 0.2-0.5 0.2h-10.5v8.5h11.4q0.4 0 0.6 0.2 0.2 0.2 0.2 0.5v0.5q0 0.3-0.2 0.5-0.2 0.2-0.6 0.2z"/>
					<path id="&lt;Compound Path&gt;" class="s0" d="m151.9 408.1q-0.3 0-0.5-0.2-0.2-0.2-0.2-0.5v-21q0-0.3 0.2-0.5 0.2-0.2 0.5-0.2h12.5q0.3 0 0.5 0.2 0.2 0.2 0.2 0.5v0.5q0 0.3-0.2 0.5-0.2 0.2-0.5 0.2h-11.2v8.2h10.5q0.3 0 0.5 0.2 0.2 0.2 0.2 0.5v0.5q0 0.3-0.2 0.5-0.2 0.2-0.5 0.2h-10.5v8.5h11.4q0.4 0 0.6 0.2 0.2 0.2 0.2 0.5v0.5q0 0.3-0.2 0.5-0.2 0.2-0.6 0.2z"/>
					<path id="&lt;Compound Path&gt;" class="s0" d="m183.9 408.4q-2.9 0-4.8-1.1-1.8-1.1-2.7-3.1-0.9-1.9-1-4.4 0-1.4 0-2.9 0-1.5 0-2.8 0.1-2.5 1-4.5 0.9-2 2.7-3.1 1.9-1.1 4.8-1.1 2.3 0 3.9 0.6 1.6 0.7 2.6 1.7 1 1 1.5 2.2 0.5 1.2 0.5 2.4 0.1 0.3-0.1 0.5-0.3 0.1-0.5 0.1h-0.7q-0.2 0-0.4-0.1-0.2-0.1-0.3-0.5-0.6-2.9-2.3-3.9-1.7-1.1-4.2-1.1-2.9 0-4.6 1.7-1.8 1.6-1.9 5.2-0.1 2.6 0 5.4 0.1 3.6 1.9 5.3 1.7 1.6 4.6 1.6 2.5 0 4.2-1 1.7-1.1 2.3-4 0.1-0.3 0.3-0.5 0.2-0.1 0.4-0.1h0.7q0.2 0 0.5 0.2 0.2 0.1 0.1 0.4 0 1.2-0.5 2.4-0.5 1.2-1.5 2.2-1 1-2.6 1.7-1.6 0.6-3.9 0.6z"/>
					<path id="&lt;Compound Path&gt;" class="s0" d="m211.1 408.4q-2.9 0-4.7-1.1-1.9-1.1-2.8-3.1-0.9-1.9-1-4.4 0-1.4 0-2.9 0-1.5 0-2.8 0.1-2.5 1-4.5 0.9-2 2.8-3.1 1.8-1.1 4.7-1.1 2.3 0 3.9 0.6 1.6 0.7 2.6 1.7 1 1 1.5 2.2 0.5 1.2 0.6 2.4 0 0.3-0.2 0.5-0.2 0.1-0.5 0.1h-0.6q-0.3 0-0.5-0.1-0.2-0.1-0.3-0.5-0.6-2.9-2.2-3.9-1.7-1.1-4.3-1.1-2.9 0-4.6 1.7-1.7 1.6-1.8 5.2-0.1 2.6 0 5.4 0.1 3.6 1.8 5.3 1.7 1.6 4.6 1.6 2.6 0 4.3-1 1.6-1.1 2.2-4 0.1-0.3 0.3-0.5 0.2-0.1 0.5-0.1h0.6q0.3 0 0.5 0.2 0.2 0.1 0.2 0.4-0.1 1.2-0.6 2.4-0.5 1.2-1.5 2.2-1 1-2.6 1.7-1.6 0.6-3.9 0.6z"/>
					<path id="&lt;Compound Path&gt;" class="s0" d="m231.5 408.1q-0.4 0-0.5-0.2-0.2-0.2-0.2-0.5v-21q0-0.3 0.2-0.5 0.1-0.2 0.5-0.2h12.4q0.4 0 0.6 0.2 0.2 0.2 0.2 0.5v0.5q0 0.3-0.2 0.5-0.2 0.2-0.6 0.2h-11.1v8.2h10.4q0.4 0 0.6 0.2 0.2 0.2 0.2 0.5v0.5q0 0.3-0.2 0.5-0.2 0.2-0.6 0.2h-10.4v8.5h11.4q0.4 0 0.5 0.2 0.2 0.2 0.2 0.5v0.5q0 0.3-0.2 0.5-0.1 0.2-0.5 0.2z"/>
					<path id="&lt;Compound Path&gt;" class="s0" d="m256.8 408.1q-0.3 0-0.5-0.2-0.2-0.2-0.2-0.5v-21q0-0.3 0.2-0.5 0.2-0.2 0.5-0.2h0.7q0.3 0 0.5 0.2 0.1 0.1 0.2 0.2l11.8 18v-17.7q0-0.3 0.2-0.5 0.2-0.2 0.5-0.2h0.5q0.4 0 0.6 0.2 0.2 0.2 0.2 0.5v21q0 0.3-0.2 0.5-0.2 0.2-0.5 0.2h-0.7q-0.3 0-0.5-0.2-0.1-0.1-0.2-0.2l-11.8-18v17.7q0 0.3-0.2 0.5-0.2 0.2-0.5 0.2z"/>
					<path id="&lt;Compound Path&gt;" class="s0" d="m290 408.1q-0.3 0-0.5-0.2-0.2-0.2-0.2-0.5v-19.8h-6.3q-0.4 0-0.6-0.2-0.1-0.2-0.1-0.5v-0.5q0-0.3 0.1-0.5 0.2-0.2 0.6-0.2h14.6q0.4 0 0.6 0.2 0.1 0.2 0.1 0.5v0.5q0 0.3-0.1 0.5-0.2 0.2-0.6 0.2h-6.3v19.8q0 0.3-0.2 0.5-0.2 0.2-0.5 0.2z"/>
					<path id="&lt;Compound Path&gt;" fill-rule="evenodd" class="s0" d="m309.3 408.1q-0.3 0-0.5-0.2-0.2-0.2-0.2-0.5v-21q0-0.3 0.2-0.5 0.2-0.2 0.5-0.2h7.5q3.3 0 5.3 1.6 2 1.6 2 4.9 0 2.5-1.2 4.1-1.3 1.5-3.6 2l5.2 8.8q0.1 0.2 0.1 0.4 0 0.2-0.2 0.4-0.2 0.2-0.5 0.2h-0.4q-0.5 0-0.7-0.3-0.3-0.2-0.5-0.6l-5.1-8.6h-6.6v8.8q0 0.3-0.2 0.5-0.1 0.2-0.5 0.2zm1.3-11.4h6q2.8 0 4.1-1.1 1.4-1.2 1.4-3.4 0-2.3-1.4-3.4-1.3-1.2-4.1-1.2h-6z"/>
					<path id="&lt;Compound Path&gt;" class="s0" d="m336.2 408.1q-0.3 0-0.5-0.2-0.2-0.2-0.2-0.5v-21q0-0.3 0.2-0.5 0.2-0.2 0.5-0.2h0.6q0.3 0 0.5 0.2 0.2 0.2 0.2 0.5v21q0 0.3-0.2 0.5-0.2 0.2-0.5 0.2z"/>
					<path id="&lt;Compound Path&gt;" class="s0" d="m357.5 408.4q-2.9 0-4.7-1.1-1.9-1.1-2.8-3.1-0.9-1.9-1-4.4 0-1.4 0-2.9 0-1.5 0-2.8 0.1-2.5 1-4.5 0.9-2 2.8-3.1 1.8-1.1 4.7-1.1 2.3 0 3.9 0.6 1.6 0.7 2.6 1.7 1 1 1.5 2.2 0.5 1.2 0.6 2.4 0 0.3-0.2 0.5-0.2 0.1-0.5 0.1h-0.7q-0.2 0-0.4-0.1-0.2-0.1-0.3-0.5-0.6-2.9-2.2-3.9-1.7-1.1-4.3-1.1-2.9 0-4.6 1.7-1.7 1.6-1.8 5.2-0.1 2.6 0 5.4 0.1 3.6 1.8 5.3 1.7 1.6 4.6 1.6 2.6 0 4.3-1 1.6-1.1 2.2-4 0.1-0.3 0.3-0.5 0.2-0.1 0.4-0.1h0.7q0.3 0 0.5 0.2 0.2 0.1 0.2 0.4-0.1 1.2-0.6 2.4-0.5 1.2-1.5 2.2-1 1-2.6 1.7-1.6 0.6-3.9 0.6z"/>
				</g>
			</g>
		</g>
		<path id="CALVADOZ
" class="s1" aria-label="CALVADOZ"  d="m-1863.4 114.8q-7 0-12-2.4-4.9-2.4-7.6-6.9-2.7-4.5-3-11.1 0-3.1 0-6.6 0-3.5 0-6.7 0.3-6.5 3-11 2.8-4.5 7.8-6.9 4.9-2.4 11.8-2.4 5 0 9.2 1.2 4.1 1.3 7.1 3.7 3 2.4 4.6 5.6 1.7 3.3 1.8 7.2 0 0.7-0.5 1.2-0.4 0.4-1.1 0.4h-8.6q-0.9 0-1.4-0.4-0.5-0.5-0.8-1.5-1.1-4.5-3.8-6.1-2.6-1.7-6.5-1.7-4.6 0-7.3 2.6-2.7 2.5-3 8.5-0.2 6.1 0 12.5 0.3 6 3 8.5 2.7 2.6 7.3 2.6 3.9 0 6.5-1.7 2.7-1.7 3.8-6.1 0.3-1.1 0.8-1.5 0.5-0.4 1.4-0.4h8.6q0.7 0 1.1 0.4 0.5 0.5 0.5 1.2-0.1 4-1.8 7.2-1.6 3.2-4.6 5.6-3 2.4-7.1 3.7-4.2 1.3-9.2 1.3zm50.2-0.8h-7.8q-0.7 0-1.1-0.5-0.5-0.5-0.5-1.1 0-0.4 0.1-0.6l17.8-48.3q0.3-0.8 0.9-1.4 0.7-0.6 1.9-0.6h9.6q1.2 0 1.9 0.6 0.7 0.6 0.9 1.4l17.8 48.3q0.1 0.2 0.1 0.6 0 0.6-0.4 1.1-0.5 0.5-1.2 0.5h-7.8q-1.1 0-1.6-0.5-0.5-0.5-0.7-1l-3.2-8.4h-21.2l-3.2 8.4q-0.1 0.5-0.7 1-0.5 0.5-1.6 0.5zm16.1-41.2l-7.8 21.6h15.5zm82.3 41.2h-33.4q-0.9 0-1.4-0.5-0.5-0.6-0.5-1.4v-48.7q0-0.8 0.5-1.4 0.5-0.5 1.4-0.5h8.3q0.8 0 1.3 0.5 0.6 0.6 0.6 1.4v40.5l23.2 0.1q0.8 0 1.4 0.5 0.5 0.5 0.5 1.3v6.3q0 0.9-0.5 1.4-0.6 0.5-1.4 0.5zm41.9 0h-9.8q-1.2 0-1.9-0.6-0.7-0.7-1-1.6l-15.8-48.1q0-0.3 0-0.6 0-0.6 0.4-1.1 0.5-0.5 1.1-0.5h7.9q1.1 0 1.7 0.7 0.7 0.6 0.9 1.1l11.7 36.7 11.6-36.7q0.2-0.5 0.8-1.1 0.6-0.7 1.7-0.7h7.9q0.7 0 1.1 0.5 0.5 0.5 0.5 1.1 0 0.3-0.1 0.6l-15.7 48.1q-0.3 0.9-1 1.6-0.7 0.6-2 0.6zm42 0h-7.8q-0.7 0-1.2-0.5-0.4-0.5-0.4-1.1 0-0.4 0.1-0.7l17.8-48.2q0.2-0.8 0.9-1.4 0.7-0.6 1.9-0.6h9.6q1.2 0 1.9 0.6 0.6 0.6 0.9 1.4l17.8 48.3q0.1 0.3 0.1 0.6 0 0.6-0.5 1.2-0.4 0.4-1.1 0.4h-7.8q-1.1 0-1.6-0.5-0.6-0.5-0.7-1l-3.2-8.4h-21.2l-3.2 8.4q-0.2 0.5-0.7 1-0.5 0.5-1.6 0.5zm16.1-41.2l-7.8 21.6h15.5zm68 41.2h-19.2q-0.8 0-1.3-0.5-0.5-0.6-0.5-1.4v-48.7q0-0.8 0.5-1.4 0.5-0.5 1.3-0.5h18.9q7.5 0 12.5 2.4 5 2.3 7.6 6.9 2.7 4.5 2.9 11.2 0.1 3.3 0.1 5.8 0 2.4-0.1 5.7-0.2 6.9-2.8 11.5-2.5 4.6-7.5 6.8-4.9 2.2-12.4 2.2zm-9.1-42.8v33.1h8.8q3.7 0 6.1-1.1 2.4-1.1 3.5-3.5 1.2-2.5 1.3-6.4 0.1-2.2 0.1-3.9 0.1-1.7 0-3.5 0-1.7-0.1-3.8-0.1-5.6-2.9-8.2-2.7-2.7-8.4-2.7zm77.1 43.5q-6.8 0-11.8-2.2-4.9-2.3-7.7-6.8-2.8-4.5-3-11.4-0.1-3.3-0.1-6.4 0-3.2 0.1-6.5 0.2-6.8 3-11.3 2.8-4.7 7.8-7 5-2.4 11.7-2.4 6.6 0 11.5 2.4 5.1 2.3 7.9 7 2.9 4.5 3 11.3 0.2 3.3 0.2 6.5 0 3.1-0.2 6.4-0.2 6.9-3 11.4-2.8 4.5-7.7 6.8-5 2.2-11.7 2.2zm0-9.6q4.3 0 7.1-2.7 2.9-2.7 3-8.5 0.2-3.3 0.2-6.2 0-2.9-0.2-6.1-0.1-3.9-1.4-6.4-1.4-2.5-3.6-3.6-2.2-1.2-5.1-1.2-2.9 0-5.2 1.2-2.2 1.1-3.6 3.6-1.3 2.5-1.4 6.4-0.1 3.2-0.1 6.1 0 2.9 0.1 6.2 0.2 5.8 3 8.5 2.8 2.7 7.2 2.7zm84 8.9h-38.4q-0.8 0-1.4-0.5-0.5-0.6-0.5-1.4v-6.3q0-1 0.5-1.7 0.4-0.7 0.6-1l25.2-31.6h-23.7q-0.8 0-1.3-0.6-0.5-0.5-0.5-1.2v-6.3q0-0.9 0.5-1.4 0.5-0.5 1.3-0.5h36.8q0.8 0 1.3 0.5 0.6 0.5 0.6 1.4v6.2q0 0.8-0.3 1.5-0.3 0.6-0.6 1.1l-24.6 31.7h24.5q0.8 0 1.3 0.6 0.6 0.5 0.6 1.3v6.3q0 0.8-0.6 1.4-0.5 0.5-1.3 0.5z"/>
		<path id="FEEL THE ECCENTRIC
" class="s1" aria-label="FEEL THE ECCENTRIC"  d="m-1843.8 158h-0.6q-0.3 0-0.5-0.2-0.2-0.2-0.2-0.5v-21q0-0.3 0.2-0.5 0.2-0.2 0.5-0.2h12.3q0.4 0 0.6 0.2 0.2 0.2 0.2 0.5v0.5q0 0.3-0.2 0.5-0.2 0.2-0.6 0.2h-11v8.6h10.4q0.4 0 0.6 0.2 0.1 0.2 0.1 0.6v0.4q0 0.4-0.1 0.6-0.2 0.1-0.6 0.1h-10.4v9.3q0 0.3-0.2 0.5-0.2 0.2-0.5 0.2zm36.8 0h-12.8q-0.3 0-0.5-0.2-0.2-0.2-0.2-0.5v-21q0-0.3 0.2-0.5 0.2-0.2 0.5-0.2h12.5q0.4 0 0.6 0.2 0.2 0.2 0.2 0.5v0.5q0 0.3-0.2 0.5-0.2 0.2-0.6 0.2h-11.2v8.2h10.5q0.4 0 0.6 0.2 0.1 0.2 0.1 0.5v0.5q0 0.3-0.1 0.5-0.2 0.2-0.6 0.2h-10.5v8.5h11.5q0.3 0 0.5 0.2 0.2 0.2 0.2 0.5v0.5q0 0.3-0.2 0.5-0.2 0.2-0.5 0.2zm25.3 0h-12.7q-0.3 0-0.5-0.2-0.2-0.2-0.2-0.5v-21q0-0.3 0.2-0.5 0.2-0.2 0.5-0.2h12.5q0.3 0 0.5 0.2 0.2 0.2 0.2 0.5v0.5q0 0.3-0.2 0.5-0.2 0.2-0.5 0.2h-11.2v8.2h10.5q0.3 0 0.5 0.2 0.2 0.2 0.2 0.5v0.5q0 0.3-0.2 0.5-0.2 0.2-0.5 0.2h-10.5v8.5h11.4q0.4 0 0.6 0.2 0.2 0.2 0.2 0.5v0.5q0 0.3-0.2 0.5-0.2 0.2-0.6 0.2zm25 0h-12.4q-0.3 0-0.5-0.2-0.2-0.2-0.2-0.5v-21q0-0.3 0.2-0.5 0.2-0.2 0.5-0.2h0.6q0.4 0 0.5 0.2 0.2 0.2 0.2 0.5v19.8h11.1q0.3 0 0.5 0.2 0.2 0.2 0.2 0.5v0.5q0 0.3-0.2 0.5-0.2 0.2-0.5 0.2zm30 0h-0.6q-0.3 0-0.5-0.2-0.2-0.2-0.2-0.5v-19.8h-6.3q-0.3 0-0.5-0.2-0.2-0.2-0.2-0.5v-0.5q0-0.3 0.2-0.5 0.2-0.2 0.5-0.2h14.6q0.4 0 0.6 0.2 0.2 0.2 0.2 0.5v0.5q0 0.3-0.2 0.5-0.2 0.2-0.6 0.2h-6.3v19.8q0 0.3-0.2 0.5-0.2 0.2-0.5 0.2zm19.3 0h-0.6q-0.3 0-0.5-0.2-0.2-0.2-0.2-0.5v-21q0-0.3 0.2-0.5 0.2-0.2 0.5-0.2h0.6q0.4 0 0.6 0.2 0.2 0.2 0.2 0.5v9.4h12.3v-9.4q0-0.3 0.2-0.5 0.2-0.2 0.5-0.2h0.6q0.3 0 0.5 0.2 0.2 0.2 0.2 0.5v21q0 0.3-0.2 0.5-0.2 0.2-0.5 0.2h-0.6q-0.3 0-0.5-0.2-0.2-0.2-0.2-0.5v-9.7h-12.3v9.7q0 0.3-0.2 0.5-0.2 0.2-0.6 0.2zm41 0h-12.8q-0.3 0-0.5-0.2-0.2-0.2-0.2-0.5v-21q0-0.3 0.2-0.5 0.2-0.2 0.5-0.2h12.5q0.4 0 0.6 0.2 0.2 0.2 0.2 0.5v0.5q0 0.3-0.2 0.5-0.2 0.2-0.6 0.2h-11.1v8.2h10.4q0.4 0 0.6 0.2 0.2 0.2 0.2 0.5v0.5q0 0.3-0.2 0.5-0.2 0.2-0.6 0.2h-10.4v8.5h11.4q0.3 0 0.5 0.2 0.2 0.2 0.2 0.5v0.5q0 0.3-0.2 0.5-0.2 0.2-0.5 0.2zm40 0h-12.8q-0.3 0-0.5-0.2-0.2-0.2-0.2-0.5v-21q0-0.3 0.2-0.5 0.2-0.2 0.5-0.2h12.5q0.4 0 0.6 0.2 0.2 0.2 0.2 0.5v0.5q0 0.3-0.2 0.5-0.2 0.2-0.6 0.2h-11.1v8.2h10.4q0.4 0 0.6 0.2 0.2 0.2 0.2 0.5v0.5q0 0.3-0.2 0.5-0.2 0.2-0.6 0.2h-10.4v8.5h11.4q0.3 0 0.5 0.2 0.2 0.2 0.2 0.5v0.5q0 0.3-0.2 0.5-0.2 0.2-0.5 0.2zm19.2 0.3q-2.9 0-4.7-1.1-1.8-1.2-2.7-3.1-0.9-2-1-4.5-0.1-1.3-0.1-2.8 0-1.5 0.1-2.8 0.1-2.5 1-4.5 0.9-2 2.7-3.1 1.8-1.1 4.7-1.1 2.3 0 3.9 0.6 1.6 0.7 2.6 1.7 1 1 1.5 2.3 0.5 1.1 0.6 2.3 0 0.3-0.2 0.5-0.2 0.1-0.5 0.1h-0.6q-0.3 0-0.5-0.1-0.2-0.2-0.2-0.5-0.6-2.9-2.3-3.9-1.7-1.1-4.3-1.1-2.9 0-4.6 1.7-1.7 1.6-1.8 5.2-0.1 2.6 0 5.4 0.1 3.6 1.8 5.3 1.7 1.6 4.6 1.6 2.6 0 4.3-1.1 1.7-1 2.3-3.9 0-0.3 0.2-0.5 0.2-0.1 0.5-0.1h0.6q0.3 0 0.5 0.2 0.2 0.1 0.2 0.4-0.1 1.2-0.6 2.4-0.5 1.2-1.5 2.2-1 1-2.6 1.7-1.6 0.6-3.9 0.6zm27.3 0q-2.9 0-4.8-1.1-1.8-1.2-2.7-3.1-0.9-2-1-4.5 0-1.3 0-2.8 0-1.5 0-2.8 0.1-2.5 1-4.5 0.9-2 2.7-3.1 1.9-1.1 4.8-1.1 2.2 0 3.8 0.6 1.6 0.7 2.6 1.7 1.1 1 1.5 2.3 0.6 1.1 0.6 2.3 0.1 0.3-0.2 0.5-0.2 0.1-0.5 0.1h-0.6q-0.2 0-0.4-0.1-0.2-0.2-0.3-0.5-0.6-2.9-2.3-3.9-1.7-1.1-4.2-1.1-2.9 0-4.7 1.7-1.7 1.6-1.8 5.2-0.1 2.6 0 5.4 0.1 3.6 1.8 5.3 1.8 1.6 4.7 1.6 2.5 0 4.2-1.1 1.7-1 2.3-3.9 0.1-0.3 0.3-0.5 0.2-0.1 0.4-0.1h0.6q0.3 0 0.5 0.2 0.3 0.1 0.2 0.4 0 1.2-0.6 2.4-0.4 1.2-1.5 2.2-1 1-2.6 1.7-1.6 0.6-3.8 0.6zm33.1-0.3h-12.8q-0.3 0-0.5-0.2-0.2-0.2-0.2-0.5v-21q0-0.3 0.2-0.5 0.2-0.2 0.5-0.2h12.5q0.4 0 0.6 0.2 0.1 0.2 0.1 0.5v0.5q0 0.3-0.1 0.5-0.2 0.2-0.6 0.2h-11.2v8.2h10.5q0.4 0 0.5 0.2 0.2 0.2 0.2 0.5v0.5q0 0.3-0.2 0.5-0.1 0.2-0.5 0.2h-10.5v8.5h11.5q0.3 0 0.5 0.2 0.2 0.2 0.2 0.5v0.5q0 0.3-0.2 0.5-0.2 0.2-0.5 0.2zm13.1 0h-0.5q-0.3 0-0.5-0.2-0.2-0.2-0.2-0.5v-21q0-0.3 0.2-0.5 0.2-0.2 0.5-0.2h0.6q0.4 0 0.5 0.2 0.2 0.1 0.2 0.2l11.8 18v-17.7q0-0.3 0.2-0.5 0.2-0.2 0.5-0.2h0.6q0.4 0 0.5 0.2 0.2 0.2 0.2 0.5v21q0 0.3-0.2 0.5-0.1 0.2-0.5 0.2h-0.7q-0.3 0-0.4-0.2-0.2-0.1-0.2-0.2l-11.8-18v17.7q0 0.3-0.2 0.5-0.2 0.2-0.6 0.2zm33.2 0h-0.5q-0.4 0-0.6-0.2-0.1-0.2-0.1-0.5v-19.8h-6.4q-0.3 0-0.5-0.2-0.2-0.2-0.2-0.5v-0.5q0-0.3 0.2-0.5 0.2-0.2 0.5-0.2h14.7q0.3 0 0.5 0.2 0.2 0.2 0.2 0.5v0.5q0 0.3-0.2 0.5-0.2 0.2-0.5 0.2h-6.3v19.8q0 0.3-0.2 0.5-0.2 0.2-0.6 0.2zm19.4 0h-0.6q-0.3 0-0.5-0.2-0.2-0.2-0.2-0.5v-21q0-0.3 0.2-0.5 0.2-0.2 0.5-0.2h7.4q3.4 0 5.4 1.6 2 1.6 2 4.9 0 2.5-1.3 4.1-1.3 1.5-3.5 2l5.1 8.8q0.1 0.2 0.1 0.4 0 0.2-0.2 0.4-0.2 0.2-0.4 0.2h-0.4q-0.5 0-0.8-0.3-0.2-0.2-0.4-0.6l-5.1-8.6h-6.6v8.8q0 0.3-0.2 0.5-0.2 0.2-0.5 0.2zm0.7-20.5v9.1h6q2.8 0 4.1-1.1 1.4-1.2 1.4-3.4 0-2.3-1.4-3.4-1.3-1.2-4.1-1.2zm26.2 20.5h-0.7q-0.3 0-0.5-0.2-0.2-0.2-0.2-0.5v-21q0-0.3 0.2-0.5 0.2-0.2 0.5-0.2h0.7q0.3 0 0.5 0.2 0.2 0.2 0.2 0.5v21q0 0.3-0.2 0.5-0.2 0.2-0.5 0.2zm20.7 0.3q-3 0-4.8-1.1-1.8-1.2-2.7-3.1-0.9-2-1-4.5-0.1-1.3-0.1-2.8 0-1.5 0.1-2.8 0.1-2.5 1-4.5 0.9-2 2.7-3.1 1.8-1.1 4.8-1.1 2.2 0 3.8 0.6 1.6 0.7 2.6 1.7 1 1 1.5 2.3 0.5 1.1 0.6 2.3 0 0.3-0.2 0.5-0.2 0.1-0.5 0.1h-0.6q-0.3 0-0.5-0.1-0.1-0.2-0.2-0.5-0.6-2.9-2.3-3.9-1.7-1.1-4.2-1.1-3 0-4.7 1.7-1.7 1.6-1.8 5.2-0.1 2.6 0 5.4 0.1 3.6 1.8 5.3 1.7 1.6 4.7 1.6 2.5 0 4.2-1.1 1.7-1 2.3-3.9 0.1-0.3 0.2-0.5 0.2-0.1 0.5-0.1h0.6q0.3 0 0.5 0.2 0.2 0.1 0.2 0.4-0.1 1.2-0.6 2.4-0.5 1.2-1.5 2.2-1 1-2.6 1.7-1.6 0.6-3.8 0.6z"/>
	</g>
</svg>