<svg width="71px" height="31px" viewBox="0 0 71 31" version="1.1" xmlns="http://www.w3.org/2000/svg" xmlns:xlink="http://www.w3.org/1999/xlink">
    <title>hdpi/Page 1</title>
    <desc>Created with Sketch.</desc>
    <defs></defs>
    <g id="Decided" stroke="none" stroke-width="1" fill="none" fill-rule="evenodd">
        <g id="CHANNEL-in-detail" transform="translate(-46.000000, -10.000000)">
            <g id="Page-1" transform="translate(46.000000, 10.000000)">
                <path d="M44.1374727,26.1438919 C44.1374727,26.5008108 44.032183,26.7752027 43.7957852,27.0223649 C43.5852057,27.269527 43.2963648,27.3788649 42.9808989,27.3788649 C42.665433,27.3788649 42.3761886,27.269527 42.1660125,27.0223649 C41.955433,26.8024324 41.824325,26.5008108 41.824325,26.1438919 C41.824325,25.8146216 41.9292114,25.5125811 42.1660125,25.2930676 C42.3761886,25.0731351 42.665433,24.9361486 42.9808989,24.9361486 C43.2963648,24.9361486 43.5852057,25.0459054 43.7957852,25.2930676 C44.032183,25.5125811 44.1374727,25.786973 44.1374727,26.1438919" id="Fill-1" fill="#262626"></path>
                <path d="M50.9459693,21.8348081 C50.7357932,21.7246324 50.5518386,21.6152946 50.3674807,21.5604162 C50.1835261,21.5055378 49.9995716,21.4774703 49.815617,21.4774703 C49.3424182,21.4774703 48.9482875,21.6425243 48.6590432,21.9994432 C48.3697989,22.3559432 48.2382875,22.8226189 48.2382875,23.3990514 C48.2382875,24.0031324 48.3697989,24.4970378 48.6590432,24.826727 C48.9482875,25.1559973 49.3686398,25.3478622 49.8946852,25.3478622 C50.1048614,25.3478622 50.2888159,25.3202135 50.4465489,25.2381054 C50.6305034,25.183227 50.7882364,25.0730514 50.9459693,24.9360649 L50.9459693,26.940173 C50.68335,27.0771595 50.4203273,27.1864973 50.131083,27.2694432 C49.8418386,27.3243216 49.5263727,27.3787811 49.2109068,27.3787811 C48.1334011,27.3787811 47.2918898,27.0222811 46.660958,26.3360919 C46.0300261,25.6494838 45.7149636,24.6889027 45.7149636,23.4815784 C45.7149636,22.2738351 46.0300261,21.3132541 46.660958,20.6270649 C47.2918898,19.913227 48.1334011,19.5839568 49.2109068,19.5839568 C49.5263727,19.5839568 49.815617,19.6111865 50.1048614,19.6660649 C50.3941057,19.7213622 50.68335,19.8034703 50.9459693,19.8859973 L50.9459693,21.8348081 Z" id="Fill-3" fill="#262626"></path>
                <path d="M59.2267074,23.4540554 C59.2267074,24.6617986 58.8850199,25.6223797 58.2278665,26.3085689 C57.5707131,27.0224068 56.6767585,27.351677 55.5988494,27.351677 C54.4951222,27.351677 53.6011676,26.9947581 52.9702358,26.3085689 C52.3130824,25.5947311 51.9976165,24.6617986 51.9976165,23.4540554 C51.9976165,22.2463122 52.3130824,21.2857311 52.9702358,20.5999608 C53.6273892,19.8857041 54.4951222,19.5564338 55.5988494,19.5564338 C56.7033835,19.5564338 57.5969347,19.9133527 58.2278665,20.6271905 C58.9112415,21.3133797 59.2267074,22.2463122 59.2267074,23.4540554 M55.6254744,25.5398527 C56.0458267,25.5398527 56.3875142,25.3479878 56.5980938,24.9910689 C56.8344915,24.63415 56.9397813,24.1125959 56.9397813,23.4268257 C56.9397813,22.7678662 56.8344915,22.2463122 56.5980938,21.8621635 C56.3612926,21.5056635 56.0458267,21.3133797 55.6254744,21.3133797 C55.2047188,21.3133797 54.8630313,21.5056635 54.6528551,21.8621635 C54.416054,22.2190824 54.3107642,22.7406365 54.3107642,23.4268257 C54.3107642,24.1125959 54.416054,24.63415 54.6528551,24.9910689 C54.8630313,25.3479878 55.1784972,25.5398527 55.6254744,25.5398527" id="Fill-5" fill="#262626"></path>
                <path d="M60.5149136,27.3515514 L60.5149136,19.6941324 L62.723175,19.6941324 L62.723175,20.8738081 C63.0120159,20.4347811 63.3541068,20.1331595 63.7220159,19.913227 C64.089925,19.7213622 64.5106807,19.6111865 64.9838795,19.6111865 C65.4570784,19.6111865 65.8249875,19.7213622 66.1142318,19.9408757 C66.4034761,20.1603892 66.6136523,20.4624297 66.692317,20.8738081 C67.034408,20.4347811 67.3760955,20.1331595 67.7440045,19.913227 C68.112317,19.7213622 68.5064477,19.6111865 68.9530216,19.6111865 C69.5839534,19.6111865 70.0309307,19.8034703 70.2677318,20.1876189 C70.5307545,20.5717676 70.6356409,21.3681324 70.6356409,22.5758757 L70.6356409,27.3515514 L68.2962716,27.3515514 L68.2962716,22.7132811 C68.2962716,22.2738351 68.243425,21.9717946 68.1381352,21.8075784 C68.0332489,21.6425243 67.8492943,21.5604162 67.5862716,21.5604162 C67.2708057,21.5604162 67.0606295,21.6425243 66.9291182,21.8348081 C66.7976068,22.026673 66.718942,22.3287135 66.718942,22.8226189 L66.718942,27.3515514 L64.4053909,27.3515514 L64.4053909,22.7132811 C64.4053909,22.2738351 64.3529477,21.9994432 64.247658,21.8075784 C64.1427716,21.6425243 63.958817,21.5327676 63.6957943,21.5327676 C63.3803284,21.5327676 63.1435273,21.6425243 63.0120159,21.8348081 C62.880908,22.026673 62.8018398,22.3559432 62.8018398,22.8226189 L62.8018398,27.3515514 L60.5149136,27.3515514 Z" id="Fill-7" fill="#262626"></path>
                <path d="M10.3048835,11.4872176 C10.1471506,11.8164878 9.93697443,12.0908797 9.64773011,12.3380419 C9.3322642,12.5852041 8.96435511,12.8047176 8.51737784,12.9417041 C8.01795739,13.1063392 7.49191193,13.1888662 6.88760511,13.1888662 L6.54591761,13.1888662 L6.54591761,7.80910946 L7.91266761,7.80910946 C8.3334233,7.80910946 8.70133239,7.86440676 9.04301989,8.00139324 C9.3584858,8.13837973 9.62150852,8.30343378 9.85790625,8.5229473 C10.0684858,8.74246081 10.2524403,9.0168527 10.3573267,9.31889324 C10.4888381,9.64816351 10.5412813,9.97743378 10.5412813,10.3892311 C10.5412813,10.8010284 10.4626165,11.185177 10.3048835,11.4872176 M21.0040994,26.9398797 L13.4329176,16.37265 L13.591054,16.2905419 C14.3268722,15.8787446 14.9840256,15.3844203 15.5362926,14.8084068 C16.1143778,14.2043257 16.5613551,13.5181365 16.876821,12.7770689 C17.1922869,12.0087716 17.3762415,11.1575284 17.3762415,10.307123 C17.3762415,9.26401486 17.1660653,8.30343378 16.7715312,7.39731216 C16.351179,6.49160946 15.7464687,5.69566351 14.9315824,5.0643527 C14.1691392,4.46069054 13.2227415,3.99401486 12.1452358,3.66474459 C11.0935483,3.36270405 9.88453125,3.19806892 8.54359943,3.19806892 L0.262821023,3.19806892 C0.105088068,3.19806892 0.000201704545,3.33547432 0.000201704545,3.47246081 L0.000201704545,27.1045149 C0.000201704545,27.26915 0.131309659,27.3789068 0.262821023,27.3789068 L6.28289489,27.3789068 C6.44062784,27.3789068 6.54591761,27.2419203 6.54591761,27.1045149 L6.54591761,17.6352716 L13.3542528,27.26915 C13.406696,27.351677 13.4857642,27.3789068 13.5648324,27.3789068 L20.7935199,27.3789068 C20.8988097,27.3789068 20.9778778,27.3240284 21.030321,27.2142716 C21.0827642,27.1317446 21.0565426,27.0219878 21.0040994,26.9398797" id="Fill-21" fill="#262626"></path>
                <path d="M41.0880631,15.8656324 C42.086904,18.3083486 41.6137051,22.0957946 40.3256199,23.7429838 C38.9850915,25.4722811 38.459046,27.3109162 36.3036313,28.2166189 C33.2542619,29.4792405 29.3109381,28.8755784 27.1030801,26.2129297 C24.0008642,22.5075919 25.8674381,18.1709432 28.8643642,15.1245649 C28.9168074,15.2619703 28.9954722,15.4266054 29.0483188,15.5635919 C29.1794267,15.2619703 29.3375631,14.9322811 29.468671,14.6302405 C30.3888472,14.3834973 31.2037335,13.3131595 31.8871085,12.6814297 C32.0710631,12.5167946 32.255421,12.3798081 32.3869324,12.1875243 C31.0722222,11.1444162 29.3900063,10.2663622 29.1007619,8.3452 C28.8377392,6.4784973 30.178671,4.8044973 31.545421,3.62398378 C32.7810631,2.55364595 35.1208358,0.467848649 36.6715403,0.961754054 C36.6981653,0.961754054 36.7243869,1.01663243 36.7506085,1.04428108 C36.8292733,1.23614595 36.9083415,1.42842973 37.0660744,1.56583514 C37.1451426,1.64794324 37.250029,1.73047027 37.3024722,1.84022703 C37.3553188,1.92233514 37.3290972,2.08697027 37.4339835,2.11461892 C39.2218926,2.96544324 40.562421,3.87114595 40.7725972,6.20410541 C40.9041085,7.7959973 40.3256199,9.41553784 39.2743358,10.5679838 C38.643404,11.2545919 37.9862506,11.8033757 37.6441597,12.736727 C38.0124722,12.9562405 38.5118926,13.3131595 38.7749153,13.6696595 C38.8011369,13.6973081 38.8273585,13.6973081 38.8535801,13.6973081 C39.9314892,13.9989297 40.6410858,14.7948757 41.0880631,15.8656324 M32.7548415,16.5790514 C31.0984438,17.7867946 29.626404,19.2961595 28.6275631,21.3551459 C28.3383187,21.9588081 28.101921,22.6173486 28.1281426,23.2758892 C28.1281426,23.9352676 28.4436085,24.6486865 28.9954722,24.9779568 C29.4424494,25.2251189 29.9943131,25.2251189 30.4941369,25.1974703 C32.9650176,25.1149432 34.8578131,25.1702405 36.7506085,23.2758892 C37.6179381,22.3978351 38.4066028,21.4096054 38.8273585,20.2295108 C39.4582903,18.5278622 39.0637563,16.9908486 37.933404,15.6461189 C36.1983415,13.5875514 34.5685688,15.2343216 32.7548415,16.5790514 M37.5130517,5.65532162 C37.5130517,5.40815946 37.5130517,5.13376757 37.4864267,4.85937568 C35.4625233,5.13376757 33.4906597,5.87483514 31.7560006,7.0277 C31.2828017,7.32974054 30.7833813,7.85087568 30.9673358,8.40007838 C31.0460006,8.61959189 31.2299551,8.81187568 31.4143131,8.94886216 C33.4382165,10.6505108 34.7263017,11.0074297 36.3298528,8.75657838 C36.9870063,7.7959973 37.4602051,6.78053784 37.5130517,5.65532162 M28.8905858,15.1245649 C28.8905858,15.1245649 28.8905858,15.0969162 28.8905858,15.1245649 C28.8643642,15.0969162 28.8377392,15.1245649 28.8377392,15.1245649 C28.8377392,15.1517946 28.8643642,15.1517946 28.8905858,15.1245649 C28.8905858,15.1517946 28.8905858,15.1517946 28.8905858,15.1245649" id="Fill-23" fill="#DF1343"></path>
                <path d="M21.0361705,7.85829054 C21.0168068,7.86541216 21.0168068,7.83860135 21.0168068,7.83860135 C20.9712216,7.79126351 20.9712216,7.79126351 21.062392,7.83860135 C21.0168068,7.79126351 21.062392,7.83860135 21.062392,7.83860135 C21.0289091,7.83860135 21.0204375,7.86373649 21.0361705,7.85829054 M20.5718466,8.47493919 C20.525858,8.47493919 20.525858,8.42718243 20.5718466,8.47493919 M27.523392,1.70269595 C27.2079261,1.34619595 26.9190852,0.989277027 26.6032159,0.632358108 C26.4983295,0.494952703 26.3405966,0.357966216 26.2090852,0.440074324 C26.1828636,0.440074324 25.473267,-0.0261824324 25.2626875,0.0010472973 C24.9472216,0.0559256757 24.763267,0.248209459 24.6841989,0.467722973 C24.5530909,0.824641892 24.6055341,1.26366892 24.5002443,1.64781757 C24.368733,2.11449324 24.1847784,2.58116892 23.9746023,2.99296622 C23.527625,3.87102027 22.9229148,4.66696622 22.2133182,5.35357432 C22.2395398,5.40803378 22.291983,5.43568243 22.318608,5.49056081 C22.0027386,5.49056081 21.6348295,6.01211486 21.6348295,6.31373649 C21.6348295,6.53366892 21.6876761,6.75318243 21.5823864,6.91781757 C21.5037216,7.02757432 21.5037216,7.10968243 21.5299432,7.19220946 C21.5561648,7.30196622 21.5823864,7.38449324 21.5299432,7.41172297 C21.5037216,7.49425 21.3722102,7.46660135 21.2669205,7.49425 C21.1091875,7.52147973 21.0038977,7.65888514 20.9514545,7.79629054 C20.8727898,7.93327703 20.8461648,8.09791216 20.7412784,8.20766892 C20.6359886,8.31742568 20.4520341,8.34507432 20.3471477,8.23531757 C20.1627898,8.83897973 19.8473239,9.33330405 19.4531932,9.79956081 C19.1377273,10.1841284 18.848483,10.6231554 18.7960398,11.1447095 C18.7960398,11.2544662 18.9009261,11.4739797 18.848483,11.5288581 C18.848483,11.5565068 18.8747045,11.5837365 18.9009261,11.5837365 C18.9271477,11.5837365 18.9533693,11.5837365 18.9799943,11.6109662 C19.216392,11.6109662 19.6109261,11.4739797 19.8211023,11.3365743 C19.9001705,11.2816959 20.6359886,10.7605608 20.6359886,10.7877905 C20.6622102,10.568277 20.8199432,10.3759932 21.0301193,10.3211149 C21.0301193,10.4036419 21.0038977,10.48575 21.0038977,10.568277 C21.3459886,10.1564797 21.6610511,9.77233108 22.1080284,9.47029054 C22.160875,9.44306081 22.2133182,9.41541216 22.2657614,9.41541216 C22.3218352,9.41541216 22.3593523,9.45311486 22.3823466,9.49919595 C22.3488636,9.49919595 22.3448295,9.5025473 22.3448295,9.54527703 C22.3448295,9.57920946 22.3706477,9.60727703 22.4013068,9.62361486 C22.3960625,9.64833108 22.3879943,9.67220946 22.3710511,9.68980405 C22.3924318,9.67137162 22.4085682,9.65377703 22.4267216,9.63576351 C22.4303523,9.63618243 22.4327727,9.6399527 22.436,9.6399527 C22.4815852,9.6399527 22.4815852,9.6399527 22.4815852,9.59261486 C22.4815852,9.58968243 22.478358,9.58926351 22.4779545,9.58675 C22.5654943,9.49835811 22.6300398,9.44431757 22.7655852,9.52516892 C22.7655852,9.55281757 22.6336705,9.77233108 22.686517,9.82720946 C22.8180284,9.93696622 22.4497159,11.2816959 22.4234943,11.4739797 C22.318608,12.1329392 22.2395398,12.8187095 22.160875,13.4776689 C22.160875,14.9874527 21.7925625,16.5789257 21.6610511,18.1159392 C21.6610511,18.1984662 21.6610511,18.2533446 21.6876761,18.308223 C21.7138977,18.3631014 21.7663409,18.4179797 21.8187841,18.39075 C21.7401193,18.1159392 21.7663409,17.8143176 21.8978523,17.5948041 C22.0555852,18.2533446 21.7138977,18.9123041 21.7138977,19.5708446 C21.7138977,19.4057905 21.6610511,19.2139257 21.608608,19.0492905 C21.4770966,19.8180068 21.5823864,20.6139527 21.608608,21.4098986 C21.6348295,21.7663986 21.9240739,22.8643851 21.7663409,23.1664257 C21.8187841,23.0566689 21.8716307,22.9469122 21.9240739,22.8371554 C21.8716307,24.4013986 22.1870966,25.9111824 22.6078523,27.3933176 C22.7918068,27.96975 23.001983,28.5185338 23.1859375,29.0949662 C23.2912273,29.4242365 23.3436705,30.3848176 23.6329148,30.5771014 C23.6066932,30.4124662 23.8168693,30.3303581 23.9483807,30.2201824 C24.0008239,30.1380743 24.053267,30.0555473 24.0794886,29.9457905 C24.2114034,29.5616419 24.3162898,29.204723 24.395358,28.7933446 C24.5530909,28.0518581 24.6055341,27.2563311 24.5530909,26.4599662 C24.5530909,26.1855743 24.5002443,24.5664527 24.2638466,24.4290473 C24.3425114,24.4839257 24.395358,24.3465203 24.395358,24.2644122 C24.395358,23.9074932 24.3425114,23.5778041 24.237625,23.2485338 C24.1847784,23.3314797 24.1323352,23.4135878 24.1323352,23.5233446 C24.1323352,23.0013716 24.2638466,22.4802365 24.4478011,21.9863311 C24.1585568,21.8765743 24.368733,20.2570338 24.395358,19.8728851 C24.4478011,18.9395338 24.8157102,18.0887095 25.0525114,17.1830068 C25.3941989,15.9480338 25.1311761,14.6577635 25.5781534,13.4776689 C25.604375,13.3951419 25.6572216,13.2853851 25.6305966,13.203277 C25.604375,13.12075 25.4990852,13.0386419 25.4204205,13.0935203 C25.3941989,13.12075 25.3941989,13.1479797 25.3679773,13.1756284 C25.2102443,13.4500203 25.1840227,13.7797095 24.9734432,13.999223 C24.9472216,14.0264527 24.8947784,14.0541014 24.8685568,14.1089797 C24.8423352,14.1362095 24.8423352,14.1910878 24.8157102,14.2463851 C24.7370455,14.4931284 24.6583807,14.7126419 24.5793125,14.9598041 C24.5002443,14.3833716 24.8157102,13.8618176 24.9996648,13.3402635 C25.1573977,12.8187095 25.2364659,12.2975743 25.3941989,11.7760203 C25.6834432,10.8426689 25.9460625,9.90931757 26.2353068,8.97638514 C26.2881534,8.75687162 26.3668182,8.50970946 26.3930398,8.2625473 C26.3930398,8.15279054 26.3930398,8.01538514 26.4192614,7.9060473 C26.4458864,7.79629054 26.4983295,7.65888514 26.5507727,7.54912838 C27.0501932,6.34138514 27.1817045,4.99623649 27.523392,3.73403378 C27.7073466,3.07549324 27.7073466,2.36165541 27.523392,1.70269595" id="Fill-25" fill="#DF1343"></path>
            </g>
        </g>
    </g>
</svg>